<svg version="1.1" xmlns="http://www.w3.org/2000/svg" xmlns:xlink="http://www.w3.org/1999/xlink" width="451.25945" height="246.03545" viewBox="0,0,451.25945,246.03545"><g transform="translate(-9.17102,-14.13832)"><g data-paper-data="{&quot;isPaintingLayer&quot;:true}" stroke-miterlimit="10" stroke-dasharray="" stroke-dashoffset="0" style="mix-blend-mode: normal"><g fill-rule="evenodd" stroke-width="3.5"><path d="M87.36879,187.98435c1.92449,0.98374 6.01402,3.19715 0.24056,11.55891c-5.77346,8.36177 -22.37215,10.08331 -24.29664,10.08331c-7.45738,0.24593 -16.59869,0.24593 -26.70225,-3.19715c-29.34841,-9.83737 -29.58897,-42.05477 -20.2071,-47.21939c9.14131,-5.16462 13.23084,14.75606 26.46168,26.80684c5.77346,5.41055 12.74972,7.37803 18.52318,8.6077c8.17907,1.47561 23.81552,-7.8699 25.98056,-6.64023z" fill="#ffab19" stroke="#001026" stroke-linecap="round" stroke-linejoin="round"/><path d="M27.70972,168.06367c3.84897,6.64023 11.30636,15.98573 11.30636,15.98573c0,0 -8.90075,-2.21341 -13.95252,1.96747c-4.08953,3.19715 -3.12729,8.6077 -2.64617,10.32924c-3.12729,-3.19715 -6.97626,-7.62396 -9.38187,-16.23166c-2.40561,-8.6077 0,-18.93694 4.81122,-20.41255c4.81122,-0.98374 6.01402,2.70528 9.86299,8.36177z" fill="#ffffff" stroke="none" stroke-linecap="butt" stroke-linejoin="miter"/><path d="M99.39683,213.56152c-4.33009,2.95121 -19.24486,13.77232 -38.24916,19.92068l-0.96224,0.24593c-0.96224,0.24593 -1.44336,1.47561 -0.96224,2.45934c4.08953,5.90242 11.54692,17.70727 -1.68393,21.88815c-12.74972,4.18088 -36.56524,-30.49586 -26.46168,-39.59543c4.57065,-3.44308 8.66019,-1.72154 10.82523,-0.7378c1.2028,0.49187 2.40561,0.49187 3.60841,0.24593c2.88673,-0.98374 8.17907,-2.95121 12.2686,-5.16462c10.34411,-5.41055 12.74972,-7.62396 17.56094,-11.31298c4.81122,-3.68901 15.87701,-12.78858 24.77776,-4.91869c7.69794,6.64023 3.36785,14.01826 -0.72168,16.96947z" fill="#ffab19" stroke="#001026" stroke-linecap="round" stroke-linejoin="round"/><path d="M137.64599,162.40717c1.2028,0.98374 15.87701,18.69101 20.68823,14.26419c5.77346,-5.16462 13.71196,-15.24793 22.37215,-7.1321c8.66019,8.11583 -7.69794,21.88815 -14.67421,25.57717c-16.59869,7.62396 -30.0701,-6.88616 -32.95683,-10.82111c-2.88673,-3.93495 -7.93851,-10.57518 -7.93851,-16.96947c0.24056,-6.88616 8.41963,-8.6077 12.50916,-4.91869z" fill="#ffab19" stroke="#001026" stroke-linecap="round" stroke-linejoin="round"/><path d="M137.88655,219.70987c5.05178,4.67275 16.11757,14.26419 16.11757,14.26419c0,0 34.40019,-6.14836 34.40019,11.55891c0,10.57518 -17.32038,13.03452 -40.65477,10.82111c-1.44336,-0.24593 -2.88673,-0.7378 -4.08953,-1.72154c-5.29234,-4.67275 -20.44767,-18.44507 -30.0701,-28.03651c-14.19309,-14.26419 -25.98056,-23.60969 -25.98056,-23.60969c-20.44767,-20.41255 -3.84897,-29.02025 2.64617,-40.8251c6.01402,-10.08331 8.66019,-8.11583 23.09383,-5.16462c8.17907,1.22967 12.99028,1.96747 18.28262,1.72154c7.93851,-0.24593 6.49514,11.55891 4.33009,17.70727c0,0 -3.36785,9.09957 -6.49514,13.77232c-3.84897,5.65649 -6.7357,9.3455 -9.62243,11.55891z" fill="#ffab19" stroke="#001026" stroke-linecap="round" stroke-linejoin="round"/><path d="M117.67945,201.51073c0,0 -3.60841,-2.95121 -7.45738,-6.64023c-4.81122,-4.42682 -9.62243,-8.11583 -4.81122,-15.7398c4.33009,-5.90242 8.41963,-13.77232 19.24486,-6.64023c10.34411,6.64023 5.77346,12.78858 5.77346,12.78858c-5.29234,11.06704 -12.74972,16.23166 -12.74972,16.23166z" fill="#ffffff" stroke="none" stroke-linecap="butt" stroke-linejoin="miter"/><path d="M81.35477,181.34412c5.29234,6.88616 13.4714,15.49386 3.12729,22.62596c-14.19309,8.11583 -25.98056,-16.4776 -28.38617,-25.0853c-2.16505,-7.62396 4.08953,-12.54265 9.38187,-16.72353c10.34411,-7.62396 19.0043,-14.51012 28.62673,-10.82111c12.02804,4.42682 3.36785,14.26419 -2.64617,18.69101c-3.60841,2.70528 -7.21682,5.65649 -9.86299,7.37803c-0.72168,1.22967 -0.96224,2.70528 -0.24056,3.93495z" fill="#ffab19" stroke="#001026" stroke-linecap="round" stroke-linejoin="round"/><path d="M157.13141,15.58439c0.72168,-0.49187 1.92449,-0.24593 2.16505,0.7378l6.25458,26.31497c0,0 15.39589,11.55891 19.96654,19.67475c7.69794,13.52639 7.93851,24.59343 7.93851,24.59343c0,0 17.07981,5.16462 19.96654,19.18288c2.88673,14.01826 -7.69794,40.57916 -52.92337,49.67873c-45.22542,9.09957 -81.5501,-3.44308 -98.62992,-31.47959c-17.07981,-28.03651 9.86299,-61.48358 8.41963,-59.5161l-5.05178,-44.02224c-0.24056,-0.98374 0.96224,-1.72154 1.92449,-1.22967l29.10785,19.42881c0,0 10.82523,-4.18088 22.13159,-4.67275c6.7357,-0.49187 12.50916,0 18.04206,0.98374z" fill="#ffab19" stroke="#001026" stroke-linecap="butt" stroke-linejoin="miter"/><path d="M192.73441,87.88907c0,0 16.59869,4.42682 19.48542,18.44507c2.88673,14.01826 -8.66019,39.34949 -53.40449,48.20313c-58.21571,12.29672 -85.8802,-23.11783 -69.76262,-49.18686c16.11757,-26.31497 43.78206,-3.93495 63.98917,-5.41055c17.32038,-1.22967 19.24486,-16.72353 39.69253,-12.05078z" fill="#ffffff" stroke="none" stroke-linecap="butt" stroke-linejoin="miter"/><path d="M116.95777,114.20406c0,-0.98374 0.96224,-1.72154 1.92449,-1.47561c4.57065,1.72154 17.56094,5.65649 31.99458,6.64023c12.99028,0.7378 20.68823,0 24.29664,-0.7378c1.2028,-0.24593 2.16505,0.98374 1.68393,2.21341c-2.16505,6.64023 -11.30636,25.0853 -36.56524,23.60969c-21.89103,-2.45934 -24.05608,-18.19914 -23.33439,-30.24992z" fill="#ffffff" stroke="#001026" stroke-linecap="round" stroke-linejoin="round"/><path d="M236.99759,90.59435c-11.30636,9.3455 -28.62673,9.59144 -28.62673,9.59144" fill="none" stroke="#001026" stroke-linecap="round" stroke-linejoin="round"/><path d="M233.8703,118.13899c-15.15533,1.22967 -24.5372,-3.44308 -24.5372,-3.44308" fill="none" stroke="#001026" stroke-linecap="round" stroke-linejoin="round"/><path d="M152.07964,93.54557c5.05178,0 10.34411,0.49187 10.58467,2.21341c0.24056,3.44308 -3.36785,10.32924 -7.21682,10.57518c-4.33009,0.49187 -14.43365,-5.65649 -14.43365,-9.59144c-0.24056,-2.95121 6.25458,-3.19715 11.0658,-3.19715z" fill="#001026" stroke="#001026" stroke-linecap="round" stroke-linejoin="round"/><path d="M43.82729,89.85656c0,0 20.68823,6.88616 29.10785,14.51012" fill="none" stroke="#001026" stroke-linecap="round" stroke-linejoin="round"/><path d="M73.65681,112.97438c-10.34411,4.18088 -28.14561,1.47561 -28.14561,1.47561" fill="none" stroke="#001026" stroke-linecap="round" stroke-linejoin="round"/><g><path d="M180.46581,64.77126c6.97626,11.06704 7.21682,23.60969 0.48112,28.03651c-6.7357,4.42682 -17.8015,-0.7378 -25.01832,-11.80485c-6.97626,-11.06704 -7.21682,-23.60969 -0.48112,-28.03651c6.7357,-4.67275 18.04206,0.7378 25.01832,11.80485z" fill="#ffffff" stroke="#001026" stroke-linecap="round" stroke-linejoin="round"/><path d="M179.50357,78.7895c0,2.70528 -1.92449,4.91869 -4.33009,4.91869c-2.40561,0 -4.33009,-2.21341 -4.33009,-4.91869c0,-2.70528 1.92449,-4.91869 4.33009,-4.91869c2.40561,0 4.33009,2.21341 4.33009,4.91869" fill="#001026" stroke="none" stroke-linecap="butt" stroke-linejoin="miter"/></g><g><path d="M120.80674,71.65742c7.21682,10.82111 6.7357,24.10156 0.24056,28.77432c-7.93851,4.67275 -18.52318,1.22967 -25.74,-9.59144c-7.45738,-10.82111 -7.93851,-24.83937 -0.48112,-30.24992c7.45738,-5.65649 18.76374,0.24593 25.98056,11.06704z" fill="#ffffff" stroke="#001026" stroke-linecap="round" stroke-linejoin="round"/><path d="M119.36337,85.9216c0,2.70528 -1.92449,4.91869 -4.33009,4.91869c-2.40561,0 -4.33009,-2.21341 -4.33009,-4.91869c0,-2.70528 1.92449,-4.91869 4.33009,-4.91869c2.40561,0.24593 4.33009,2.21341 4.33009,4.91869" fill="#001026" stroke="none" stroke-linecap="butt" stroke-linejoin="miter"/></g></g><text transform="translate(269.12501,71.94123) scale(0.98688,1.00455)" font-size="40" xml:space="preserve" fill="#ffab19" fill-rule="nonzero" stroke="none" stroke-width="1" stroke-linecap="butt" stroke-linejoin="miter" stroke-miterlimit="10" stroke-dasharray="" stroke-dashoffset="0" font-family="&quot;Microsoft YaHei&quot;, &quot;微软雅黑&quot;, STXihei, &quot;华文细黑&quot;" font-weight="normal" text-anchor="start" style="mix-blend-mode: normal"><tspan x="0" dy="0">Reviews</tspan></text><g fill="#ffab19" fill-rule="nonzero"><text transform="translate(255.12501,140.95391) scale(0.64611,0.65768)" font-size="40" xml:space="preserve" fill="#ffab19" fill-rule="nonzero" stroke="none" stroke-width="1" stroke-linecap="butt" stroke-linejoin="miter" stroke-miterlimit="10" stroke-dasharray="" stroke-dashoffset="0" font-family="&quot;Microsoft YaHei&quot;, &quot;微软雅黑&quot;, STXihei, &quot;华文细黑&quot;" font-weight="normal" text-anchor="start" style="mix-blend-mode: normal"><tspan x="0" dy="0">My kids loved it!</tspan></text><g><text transform="translate(257.12501,116.52305) scale(0.36146,0.36793)" font-size="40" xml:space="preserve" fill="#ffab19" fill-rule="nonzero" stroke="none" stroke-width="1" stroke-linecap="butt" stroke-linejoin="miter" stroke-miterlimit="10" stroke-dasharray="" stroke-dashoffset="0" font-family="&quot;Microsoft YaHei&quot;, &quot;微软雅黑&quot;, STXihei, &quot;华文细黑&quot;" font-weight="normal" text-anchor="start" style="mix-blend-mode: normal"><tspan x="0" dy="0">Ryan H.</tspan></text><path d="M318.30273,108.37199c0.15478,-0.34726 0.23221,-0.52089 0.33999,-0.57436c0.0936,-0.04645 0.20352,-0.04645 0.29713,0c0.10778,0.05347 0.1852,0.2271 0.33999,0.57436l1.23291,2.76597c0.0458,0.10266 0.06867,0.15399 0.1041,0.19329c0.03129,0.03478 0.0696,0.0626 0.11233,0.08164c0.04834,0.02153 0.10424,0.02743 0.21603,0.03922l3.0116,0.31786c0.3781,0.0399 0.56711,0.05985 0.65129,0.14583c0.07308,0.07468 0.10704,0.17925 0.0918,0.28264c-0.01752,0.11901 -0.15873,0.24625 -0.44115,0.50079l-2.24966,2.02734c-0.08344,0.07522 -0.12523,0.11286 -0.15164,0.15866c-0.0234,0.04058 -0.03804,0.08558 -0.04292,0.13212c-0.00555,0.05262 0.00608,0.10758 0.02942,0.21756l0.62836,2.96239c0.0789,0.37194 0.11834,0.55788 0.06258,0.66446c-0.04847,0.09267 -0.1374,0.15726 -0.24043,0.17471c-0.11861,0.02006 -0.28329,-0.07488 -0.61264,-0.26483l-2.62327,-1.51305c-0.09735,-0.05616 -0.14602,-0.08418 -0.19777,-0.09521c-0.0458,-0.00969 -0.09314,-0.00969 -0.13894,0c-0.05175,0.01103 -0.10042,0.03905 -0.19777,0.09521l-2.62326,1.51305c-0.32934,0.18995 -0.49401,0.28489 -0.61263,0.26483c-0.10304,-0.01745 -0.19199,-0.08204 -0.24042,-0.17471c-0.05576,-0.10658 -0.01631,-0.29251 0.06257,-0.66446l0.62833,-2.96239c0.02332,-0.10999 0.03498,-0.16494 0.02945,-0.21756c-0.0049,-0.04653 -0.01952,-0.09153 -0.04292,-0.13212c-0.02644,-0.0458 -0.06819,-0.08344 -0.15168,-0.15866l-2.2496,-2.02734c-0.28243,-0.25454 -0.42364,-0.38177 -0.4412,-0.50079c-0.01524,-0.10339 0.01873,-0.20796 0.09183,-0.28264c0.08416,-0.08598 0.27321,-0.10593 0.65131,-0.14583l3.01159,-0.31786c0.11178,-0.01179 0.16766,-0.01769 0.21599,-0.03922c0.04276,-0.01904 0.08104,-0.04686 0.11237,-0.08164c0.0354,-0.03931 0.05828,-0.09064 0.10405,-0.19329z" stroke="#ffab19" stroke-width="2" stroke-linecap="round" stroke-linejoin="round"/><path d="M334.30273,108.37199c0.15478,-0.34726 0.23221,-0.52089 0.33999,-0.57436c0.09361,-0.04645 0.20352,-0.04645 0.29712,0c0.10778,0.05347 0.1852,0.2271 0.33999,0.57436l1.23291,2.76597c0.0458,0.10266 0.06866,0.15399 0.1041,0.19329c0.03129,0.03478 0.06961,0.0626 0.11233,0.08164c0.04834,0.02153 0.10424,0.02742 0.21603,0.03922l3.0116,0.31786c0.37809,0.0399 0.56711,0.05985 0.65129,0.14583c0.07308,0.07467 0.10705,0.17924 0.0918,0.28264c-0.01752,0.11901 -0.15873,0.24625 -0.44115,0.50079l-2.24966,2.02734c-0.08344,0.07522 -0.12523,0.11286 -0.15164,0.15866c-0.0234,0.04058 -0.03805,0.08558 -0.04293,0.13211c-0.00555,0.05262 0.00609,0.10758 0.02942,0.21757l0.62835,2.96239c0.07889,0.37194 0.11834,0.55788 0.06258,0.66446c-0.04847,0.09267 -0.1374,0.15726 -0.24043,0.17471c-0.11861,0.02006 -0.28329,-0.07488 -0.61265,-0.26483l-2.62327,-1.51306c-0.09735,-0.05616 -0.14602,-0.08418 -0.19777,-0.09521c-0.0458,-0.00969 -0.09314,-0.00969 -0.13894,0c-0.05175,0.01103 -0.10042,0.03905 -0.19777,0.09521l-2.62326,1.51306c-0.32934,0.18995 -0.49401,0.28489 -0.61263,0.26483c-0.10304,-0.01745 -0.19199,-0.08204 -0.24042,-0.17471c-0.05575,-0.10658 -0.01632,-0.29251 0.06257,-0.66446l0.62833,-2.96239c0.02332,-0.10998 0.03498,-0.16495 0.02945,-0.21757c-0.0049,-0.04654 -0.01952,-0.09153 -0.04292,-0.13211c-0.02645,-0.0458 -0.06819,-0.08344 -0.15168,-0.15866l-2.2496,-2.02734c-0.28242,-0.25454 -0.42364,-0.38178 -0.4412,-0.50079c-0.01524,-0.1034 0.01873,-0.20797 0.09184,-0.28264c0.08416,-0.08598 0.27322,-0.10593 0.65131,-0.14583l3.01159,-0.31786c0.11178,-0.0118 0.16766,-0.01769 0.21598,-0.03922c0.04275,-0.01904 0.08104,-0.04686 0.11237,-0.08164c0.03541,-0.0393 0.05828,-0.09064 0.10404,-0.19329z" stroke="#ffab19" stroke-width="2" stroke-linecap="round" stroke-linejoin="round"/><path d="M349.55273,108.62199c0.15478,-0.34726 0.23221,-0.52089 0.33999,-0.57436c0.09361,-0.04645 0.20352,-0.04645 0.29712,0c0.10778,0.05347 0.1852,0.2271 0.33999,0.57436l1.23291,2.76597c0.0458,0.10266 0.06866,0.15399 0.1041,0.19329c0.03129,0.03478 0.06961,0.0626 0.11233,0.08164c0.04834,0.02153 0.10424,0.02742 0.21603,0.03922l3.0116,0.31786c0.37809,0.0399 0.56711,0.05985 0.65129,0.14583c0.07308,0.07467 0.10705,0.17924 0.0918,0.28264c-0.01752,0.11901 -0.15873,0.24625 -0.44115,0.50079l-2.24966,2.02734c-0.08344,0.07522 -0.12523,0.11286 -0.15164,0.15866c-0.0234,0.04058 -0.03805,0.08558 -0.04293,0.13211c-0.00555,0.05262 0.00609,0.10758 0.02942,0.21757l0.62835,2.96239c0.07889,0.37194 0.11834,0.55788 0.06258,0.66446c-0.04847,0.09267 -0.1374,0.15726 -0.24043,0.17471c-0.11861,0.02006 -0.28329,-0.07488 -0.61265,-0.26483l-2.62327,-1.51306c-0.09735,-0.05616 -0.14602,-0.08418 -0.19777,-0.09521c-0.0458,-0.00969 -0.09314,-0.00969 -0.13894,0c-0.05175,0.01103 -0.10042,0.03905 -0.19777,0.09521l-2.62326,1.51306c-0.32934,0.18995 -0.49401,0.28489 -0.61263,0.26483c-0.10304,-0.01745 -0.19199,-0.08204 -0.24042,-0.17471c-0.05575,-0.10658 -0.01632,-0.29251 0.06257,-0.66446l0.62833,-2.96239c0.02332,-0.10998 0.03498,-0.16495 0.02945,-0.21757c-0.0049,-0.04654 -0.01952,-0.09153 -0.04292,-0.13211c-0.02645,-0.0458 -0.06819,-0.08344 -0.15168,-0.15866l-2.2496,-2.02734c-0.28242,-0.25454 -0.42364,-0.38178 -0.4412,-0.50079c-0.01524,-0.1034 0.01873,-0.20797 0.09184,-0.28264c0.08416,-0.08598 0.27322,-0.10593 0.65131,-0.14583l3.01159,-0.31786c0.11178,-0.0118 0.16766,-0.01769 0.21598,-0.03922c0.04275,-0.01904 0.08104,-0.04686 0.11237,-0.08164c0.03541,-0.0393 0.05828,-0.09064 0.10404,-0.19329z" stroke="#ffab19" stroke-width="2" stroke-linecap="round" stroke-linejoin="round"/><path d="M364.30273,108.62199c0.15478,-0.34726 0.23221,-0.52089 0.33999,-0.57436c0.09361,-0.04645 0.20352,-0.04645 0.29712,0c0.10778,0.05347 0.1852,0.2271 0.33999,0.57436l1.23291,2.76597c0.0458,0.10266 0.06866,0.15399 0.1041,0.19329c0.03129,0.03478 0.06961,0.0626 0.11233,0.08164c0.04834,0.02153 0.10424,0.02742 0.21603,0.03922l3.0116,0.31786c0.37809,0.0399 0.56711,0.05985 0.65129,0.14583c0.07308,0.07467 0.10705,0.17924 0.0918,0.28264c-0.01752,0.11901 -0.15873,0.24625 -0.44115,0.50079l-2.24966,2.02734c-0.08344,0.07522 -0.12523,0.11286 -0.15164,0.15866c-0.0234,0.04058 -0.03805,0.08558 -0.04293,0.13211c-0.00555,0.05262 0.00609,0.10758 0.02942,0.21757l0.62835,2.96239c0.07889,0.37194 0.11834,0.55788 0.06258,0.66446c-0.04847,0.09267 -0.1374,0.15726 -0.24043,0.17471c-0.11861,0.02006 -0.28329,-0.07488 -0.61265,-0.26483l-2.62327,-1.51306c-0.09735,-0.05616 -0.14602,-0.08418 -0.19777,-0.09521c-0.0458,-0.00969 -0.09314,-0.00969 -0.13894,0c-0.05175,0.01103 -0.10042,0.03905 -0.19777,0.09521l-2.62326,1.51306c-0.32934,0.18995 -0.49401,0.28489 -0.61263,0.26483c-0.10304,-0.01745 -0.19199,-0.08204 -0.24042,-0.17471c-0.05575,-0.10658 -0.01632,-0.29251 0.06257,-0.66446l0.62833,-2.96239c0.02332,-0.10998 0.03498,-0.16495 0.02945,-0.21757c-0.0049,-0.04654 -0.01952,-0.09153 -0.04292,-0.13211c-0.02645,-0.0458 -0.06819,-0.08344 -0.15168,-0.15866l-2.2496,-2.02734c-0.28242,-0.25454 -0.42364,-0.38178 -0.4412,-0.50079c-0.01524,-0.1034 0.01873,-0.20797 0.09184,-0.28264c0.08416,-0.08598 0.27322,-0.10593 0.65131,-0.14583l3.01159,-0.31786c0.11178,-0.0118 0.16766,-0.01769 0.21598,-0.03922c0.04275,-0.01904 0.08104,-0.04686 0.11237,-0.08164c0.03541,-0.0393 0.05828,-0.09064 0.10404,-0.19329z" stroke="#ffab19" stroke-width="2" stroke-linecap="round" stroke-linejoin="round"/><path d="M379.30273,108.62199c0.15478,-0.34726 0.23221,-0.52089 0.33999,-0.57436c0.09361,-0.04645 0.20352,-0.04645 0.29712,0c0.10778,0.05347 0.1852,0.2271 0.33999,0.57436l1.23291,2.76597c0.0458,0.10266 0.06866,0.15399 0.1041,0.19329c0.03129,0.03478 0.06961,0.0626 0.11233,0.08164c0.04834,0.02153 0.10424,0.02742 0.21603,0.03922l3.0116,0.31786c0.37809,0.0399 0.56711,0.05985 0.65129,0.14583c0.07308,0.07467 0.10705,0.17924 0.0918,0.28264c-0.01752,0.11901 -0.15873,0.24625 -0.44115,0.50079l-2.24966,2.02734c-0.08344,0.07522 -0.12523,0.11286 -0.15164,0.15866c-0.0234,0.04058 -0.03805,0.08558 -0.04293,0.13211c-0.00555,0.05262 0.00609,0.10758 0.02942,0.21757l0.62835,2.96239c0.07889,0.37194 0.11834,0.55788 0.06258,0.66446c-0.04847,0.09267 -0.1374,0.15726 -0.24043,0.17471c-0.11861,0.02006 -0.28329,-0.07488 -0.61265,-0.26483l-2.62327,-1.51306c-0.09735,-0.05616 -0.14602,-0.08418 -0.19777,-0.09521c-0.0458,-0.00969 -0.09314,-0.00969 -0.13894,0c-0.05175,0.01103 -0.10042,0.03905 -0.19777,0.09521l-2.62326,1.51306c-0.32934,0.18995 -0.49401,0.28489 -0.61263,0.26483c-0.10304,-0.01745 -0.19199,-0.08204 -0.24042,-0.17471c-0.05575,-0.10658 -0.01632,-0.29251 0.06257,-0.66446l0.62833,-2.96239c0.02332,-0.10998 0.03498,-0.16495 0.02945,-0.21757c-0.0049,-0.04654 -0.01952,-0.09153 -0.04292,-0.13211c-0.02645,-0.0458 -0.06819,-0.08344 -0.15168,-0.15866l-2.2496,-2.02734c-0.28242,-0.25454 -0.42364,-0.38178 -0.4412,-0.50079c-0.01524,-0.1034 0.01873,-0.20797 0.09184,-0.28264c0.08416,-0.08598 0.27322,-0.10593 0.65131,-0.14583l3.01159,-0.31786c0.11178,-0.0118 0.16766,-0.01769 0.21598,-0.03922c0.04275,-0.01904 0.08104,-0.04686 0.11237,-0.08164c0.03541,-0.0393 0.05828,-0.09064 0.10404,-0.19329z" stroke="#ffab19" stroke-width="2" stroke-linecap="round" stroke-linejoin="round"/></g></g><text transform="translate(257.62501,185.39987) scale(0.38539,0.39229)" font-size="40" xml:space="preserve" fill="#ffab19" fill-rule="nonzero" stroke="none" stroke-width="1" stroke-linecap="butt" stroke-linejoin="miter" stroke-miterlimit="10" stroke-dasharray="" stroke-dashoffset="0" font-family="&quot;Microsoft YaHei&quot;, &quot;微软雅黑&quot;, STXihei, &quot;华文细黑&quot;" font-weight="normal" text-anchor="start" style="mix-blend-mode: normal"><tspan x="0" dy="0">My daughter loved her party</tspan><tspan x="0" dy="48px">this year!</tspan></text><text transform="translate(255.62501,168.02305) scale(0.36146,0.36793)" font-size="40" xml:space="preserve" fill="#ffab19" fill-rule="nonzero" stroke="none" stroke-width="1" stroke-linecap="butt" stroke-linejoin="miter" stroke-miterlimit="10" stroke-dasharray="" stroke-dashoffset="0" font-family="&quot;Microsoft YaHei&quot;, &quot;微软雅黑&quot;, STXihei, &quot;华文细黑&quot;" font-weight="normal" text-anchor="start" style="mix-blend-mode: normal"><tspan x="0" dy="0">Sarah G.</tspan></text><path d="M321.05273,159.87199c0.15478,-0.34726 0.23221,-0.52089 0.33999,-0.57436c0.0936,-0.04645 0.20352,-0.04645 0.29713,0c0.10778,0.05347 0.1852,0.2271 0.33999,0.57436l1.23291,2.76597c0.0458,0.10266 0.06867,0.15399 0.1041,0.19329c0.03129,0.03478 0.0696,0.0626 0.11233,0.08164c0.04834,0.02153 0.10424,0.02743 0.21603,0.03922l3.0116,0.31786c0.3781,0.0399 0.56711,0.05985 0.65129,0.14583c0.07308,0.07468 0.10704,0.17925 0.0918,0.28264c-0.01752,0.11901 -0.15873,0.24625 -0.44115,0.50079l-2.24966,2.02734c-0.08344,0.07522 -0.12523,0.11286 -0.15164,0.15866c-0.0234,0.04058 -0.03804,0.08558 -0.04292,0.13212c-0.00555,0.05262 0.00608,0.10758 0.02942,0.21756l0.62836,2.96239c0.0789,0.37194 0.11834,0.55788 0.06258,0.66446c-0.04847,0.09267 -0.1374,0.15726 -0.24043,0.17471c-0.11861,0.02006 -0.28329,-0.07488 -0.61264,-0.26483l-2.62327,-1.51305c-0.09735,-0.05616 -0.14602,-0.08418 -0.19777,-0.09521c-0.0458,-0.00969 -0.09314,-0.00969 -0.13894,0c-0.05175,0.01103 -0.10042,0.03905 -0.19777,0.09521l-2.62326,1.51305c-0.32934,0.18995 -0.49401,0.28489 -0.61263,0.26483c-0.10304,-0.01745 -0.19199,-0.08204 -0.24042,-0.17471c-0.05576,-0.10658 -0.01631,-0.29251 0.06257,-0.66446l0.62833,-2.96239c0.02332,-0.10999 0.03498,-0.16494 0.02945,-0.21756c-0.0049,-0.04653 -0.01952,-0.09153 -0.04292,-0.13212c-0.02644,-0.0458 -0.06819,-0.08344 -0.15168,-0.15866l-2.2496,-2.02734c-0.28243,-0.25454 -0.42364,-0.38177 -0.4412,-0.50079c-0.01524,-0.10339 0.01873,-0.20796 0.09183,-0.28264c0.08416,-0.08598 0.27321,-0.10593 0.65131,-0.14583l3.01159,-0.31786c0.11178,-0.01179 0.16766,-0.01769 0.21599,-0.03922c0.04276,-0.01904 0.08104,-0.04686 0.11237,-0.08164c0.0354,-0.03931 0.05828,-0.09064 0.10405,-0.19329z" fill="#ffab19" fill-rule="nonzero" stroke="#ffab19" stroke-width="2" stroke-linecap="round" stroke-linejoin="round"/><path d="M337.05273,159.87199c0.15478,-0.34726 0.23221,-0.52089 0.33999,-0.57436c0.09361,-0.04645 0.20352,-0.04645 0.29712,0c0.10778,0.05347 0.1852,0.2271 0.33999,0.57436l1.23291,2.76597c0.0458,0.10266 0.06866,0.15399 0.1041,0.19329c0.03129,0.03478 0.06961,0.0626 0.11233,0.08164c0.04834,0.02153 0.10424,0.02742 0.21603,0.03922l3.0116,0.31786c0.37809,0.0399 0.56711,0.05985 0.65129,0.14583c0.07308,0.07467 0.10705,0.17924 0.0918,0.28264c-0.01752,0.11901 -0.15873,0.24625 -0.44115,0.50079l-2.24966,2.02734c-0.08344,0.07522 -0.12523,0.11286 -0.15164,0.15866c-0.0234,0.04058 -0.03805,0.08558 -0.04293,0.13211c-0.00555,0.05262 0.00609,0.10758 0.02942,0.21757l0.62835,2.96239c0.07889,0.37194 0.11834,0.55788 0.06258,0.66446c-0.04847,0.09267 -0.1374,0.15726 -0.24043,0.17471c-0.11861,0.02006 -0.28329,-0.07488 -0.61265,-0.26483l-2.62327,-1.51306c-0.09735,-0.05616 -0.14602,-0.08418 -0.19777,-0.09521c-0.0458,-0.00969 -0.09314,-0.00969 -0.13894,0c-0.05175,0.01103 -0.10042,0.03905 -0.19777,0.09521l-2.62326,1.51306c-0.32934,0.18995 -0.49401,0.28489 -0.61263,0.26483c-0.10304,-0.01745 -0.19199,-0.08204 -0.24042,-0.17471c-0.05575,-0.10658 -0.01632,-0.29251 0.06257,-0.66446l0.62833,-2.96239c0.02332,-0.10998 0.03498,-0.16495 0.02945,-0.21757c-0.0049,-0.04654 -0.01952,-0.09153 -0.04292,-0.13211c-0.02645,-0.0458 -0.06819,-0.08344 -0.15168,-0.15866l-2.2496,-2.02734c-0.28242,-0.25454 -0.42364,-0.38178 -0.4412,-0.50079c-0.01524,-0.1034 0.01873,-0.20797 0.09184,-0.28264c0.08416,-0.08598 0.27322,-0.10593 0.65131,-0.14583l3.01159,-0.31786c0.11178,-0.0118 0.16766,-0.01769 0.21598,-0.03922c0.04275,-0.01904 0.08104,-0.04686 0.11237,-0.08164c0.03541,-0.0393 0.05828,-0.09064 0.10404,-0.19329z" fill="#ffab19" fill-rule="nonzero" stroke="#ffab19" stroke-width="2" stroke-linecap="round" stroke-linejoin="round"/><path d="M352.30273,160.12199c0.15478,-0.34726 0.23221,-0.52089 0.33999,-0.57436c0.09361,-0.04645 0.20352,-0.04645 0.29712,0c0.10778,0.05347 0.1852,0.2271 0.33999,0.57436l1.23291,2.76597c0.0458,0.10266 0.06866,0.15399 0.1041,0.19329c0.03129,0.03478 0.06961,0.0626 0.11233,0.08164c0.04834,0.02153 0.10424,0.02742 0.21603,0.03922l3.0116,0.31786c0.37809,0.0399 0.56711,0.05985 0.65129,0.14583c0.07308,0.07467 0.10705,0.17924 0.0918,0.28264c-0.01752,0.11901 -0.15873,0.24625 -0.44115,0.50079l-2.24966,2.02734c-0.08344,0.07522 -0.12523,0.11286 -0.15164,0.15866c-0.0234,0.04058 -0.03805,0.08558 -0.04293,0.13211c-0.00555,0.05262 0.00609,0.10758 0.02942,0.21757l0.62835,2.96239c0.07889,0.37194 0.11834,0.55788 0.06258,0.66446c-0.04847,0.09267 -0.1374,0.15726 -0.24043,0.17471c-0.11861,0.02006 -0.28329,-0.07488 -0.61265,-0.26483l-2.62327,-1.51306c-0.09735,-0.05616 -0.14602,-0.08418 -0.19777,-0.09521c-0.0458,-0.00969 -0.09314,-0.00969 -0.13894,0c-0.05175,0.01103 -0.10042,0.03905 -0.19777,0.09521l-2.62326,1.51306c-0.32934,0.18995 -0.49401,0.28489 -0.61263,0.26483c-0.10304,-0.01745 -0.19199,-0.08204 -0.24042,-0.17471c-0.05575,-0.10658 -0.01632,-0.29251 0.06257,-0.66446l0.62833,-2.96239c0.02332,-0.10998 0.03498,-0.16495 0.02945,-0.21757c-0.0049,-0.04654 -0.01952,-0.09153 -0.04292,-0.13211c-0.02645,-0.0458 -0.06819,-0.08344 -0.15168,-0.15866l-2.2496,-2.02734c-0.28242,-0.25454 -0.42364,-0.38178 -0.4412,-0.50079c-0.01524,-0.1034 0.01873,-0.20797 0.09184,-0.28264c0.08416,-0.08598 0.27322,-0.10593 0.65131,-0.14583l3.01159,-0.31786c0.11178,-0.0118 0.16766,-0.01769 0.21598,-0.03922c0.04275,-0.01904 0.08104,-0.04686 0.11237,-0.08164c0.03541,-0.0393 0.05828,-0.09064 0.10404,-0.19329z" fill="#ffab19" fill-rule="nonzero" stroke="#ffab19" stroke-width="2" stroke-linecap="round" stroke-linejoin="round"/><path d="M367.05273,160.12199c0.15478,-0.34726 0.23221,-0.52089 0.33999,-0.57436c0.09361,-0.04645 0.20352,-0.04645 0.29712,0c0.10778,0.05347 0.1852,0.2271 0.33999,0.57436l1.23291,2.76597c0.0458,0.10266 0.06866,0.15399 0.1041,0.19329c0.03129,0.03478 0.06961,0.0626 0.11233,0.08164c0.04834,0.02153 0.10424,0.02742 0.21603,0.03922l3.0116,0.31786c0.37809,0.0399 0.56711,0.05985 0.65129,0.14583c0.07308,0.07467 0.10705,0.17924 0.0918,0.28264c-0.01752,0.11901 -0.15873,0.24625 -0.44115,0.50079l-2.24966,2.02734c-0.08344,0.07522 -0.12523,0.11286 -0.15164,0.15866c-0.0234,0.04058 -0.03805,0.08558 -0.04293,0.13211c-0.00555,0.05262 0.00609,0.10758 0.02942,0.21757l0.62835,2.96239c0.07889,0.37194 0.11834,0.55788 0.06258,0.66446c-0.04847,0.09267 -0.1374,0.15726 -0.24043,0.17471c-0.11861,0.02006 -0.28329,-0.07488 -0.61265,-0.26483l-2.62327,-1.51306c-0.09735,-0.05616 -0.14602,-0.08418 -0.19777,-0.09521c-0.0458,-0.00969 -0.09314,-0.00969 -0.13894,0c-0.05175,0.01103 -0.10042,0.03905 -0.19777,0.09521l-2.62326,1.51306c-0.32934,0.18995 -0.49401,0.28489 -0.61263,0.26483c-0.10304,-0.01745 -0.19199,-0.08204 -0.24042,-0.17471c-0.05575,-0.10658 -0.01632,-0.29251 0.06257,-0.66446l0.62833,-2.96239c0.02332,-0.10998 0.03498,-0.16495 0.02945,-0.21757c-0.0049,-0.04654 -0.01952,-0.09153 -0.04292,-0.13211c-0.02645,-0.0458 -0.06819,-0.08344 -0.15168,-0.15866l-2.2496,-2.02734c-0.28242,-0.25454 -0.42364,-0.38178 -0.4412,-0.50079c-0.01524,-0.1034 0.01873,-0.20797 0.09184,-0.28264c0.08416,-0.08598 0.27322,-0.10593 0.65131,-0.14583l3.01159,-0.31786c0.11178,-0.0118 0.16766,-0.01769 0.21598,-0.03922c0.04275,-0.01904 0.08104,-0.04686 0.11237,-0.08164c0.03541,-0.0393 0.05828,-0.09064 0.10404,-0.19329z" fill="#ffab19" fill-rule="nonzero" stroke="#ffab19" stroke-width="2" stroke-linecap="round" stroke-linejoin="round"/><path d="M382.14364,160.2129c0.15478,-0.34726 0.23221,-0.52089 0.33999,-0.57436c0.09361,-0.04645 0.20352,-0.04645 0.29712,0c0.10778,0.05347 0.1852,0.2271 0.33999,0.57436l1.13733,2.55156c-0.15488,0.4823 -0.23852,0.99652 -0.23852,1.53028c0,0.66762 0.13085,1.30469 0.36831,1.88694c0.00565,0.02852 0.01155,0.05695 0.01769,0.0853c-0.41912,0.73142 -0.65872,1.57888 -0.65872,2.4823c0,0.30161 0.02671,0.597 0.07788,0.8839l-0.9253,-0.5337c-0.09735,-0.05616 -0.14602,-0.08418 -0.19777,-0.09521c-0.0458,-0.00969 -0.09314,-0.00969 -0.13894,0c-0.05175,0.01103 -0.10042,0.03905 -0.19777,0.09521l-2.62326,1.51306c-0.32934,0.18995 -0.49401,0.28489 -0.61263,0.26483c-0.10304,-0.01745 -0.19199,-0.08204 -0.24042,-0.17471c-0.05575,-0.10658 -0.01632,-0.29251 0.06257,-0.66446l0.62833,-2.96239c0.02332,-0.10998 0.03498,-0.16495 0.02945,-0.21757c-0.0049,-0.04654 -0.01952,-0.09153 -0.04292,-0.13211c-0.02645,-0.0458 -0.06819,-0.08344 -0.15168,-0.15866l-2.2496,-2.02734c-0.28242,-0.25454 -0.42364,-0.38178 -0.4412,-0.50079c-0.01524,-0.1034 0.01873,-0.20797 0.09184,-0.28264c0.08416,-0.08598 0.27322,-0.10593 0.65131,-0.14583l3.01159,-0.31786c0.11178,-0.0118 0.16766,-0.01769 0.21598,-0.03922c0.04275,-0.01904 0.08104,-0.04686 0.11237,-0.08164c0.03541,-0.0393 0.05828,-0.09064 0.10404,-0.19329z" fill="#ffab19" fill-rule="nonzero" stroke="#ffab19" stroke-width="2" stroke-linecap="round" stroke-linejoin="round"/></g></g></svg>