<svg version="1.1" xmlns="http://www.w3.org/2000/svg" xmlns:xlink="http://www.w3.org/1999/xlink" width="282.82184" height="268.99683" viewBox="0,0,282.82184,268.99683"><g transform="translate(-98.6316,-45.88411)"><g data-paper-data="{&quot;isPaintingLayer&quot;:true}" fill="#161212" fill-rule="nonzero" stroke="#000000" stroke-width="2" stroke-linecap="round" stroke-linejoin="round" stroke-miterlimit="10" stroke-dasharray="" stroke-dashoffset="0" style="mix-blend-mode: normal"><path d="M228.39387,60.52892c3.6771,-8.24972 5.51644,-12.37458 8.07691,-13.64481c2.22373,-1.10361 4.83503,-1.10361 7.05876,0c2.56047,1.27023 4.39981,5.39509 8.07691,13.64481l29.28971,65.71013c1.08804,2.4388 1.63127,3.6582 2.47311,4.592c0.74336,0.82627 1.6535,1.4872 2.66848,1.93957c1.1484,0.51146 2.47628,0.65155 5.13205,0.93174l71.54536,7.55131c8.98228,0.94794 13.47263,1.42192 15.4724,3.46441c1.7361,1.77406 2.54299,4.25829 2.18084,6.71455c-0.41616,2.82731 -3.77081,5.85 -10.48013,11.89696l-53.44419,48.16283c-1.9823,1.78693 -2.97503,2.68118 -3.60244,3.76922c-0.55593,0.96415 -0.90379,2.03313 -1.01974,3.13864c-0.13184,1.25005 0.14454,2.5557 0.69889,5.16859l14.92759,70.37631c1.87429,8.83615 2.81143,13.25343 1.48672,15.78531c-1.15157,2.20149 -3.26412,3.73587 -5.71181,4.15043c-2.81778,0.47651 -6.72996,-1.77898 -14.55432,-6.29157l-62.32005,-35.94502c-2.31268,-1.33424 -3.46902,-1.99977 -4.69843,-2.26185c-1.08804,-0.23031 -2.21261,-0.23031 -3.30065,0c-1.22941,0.26208 -2.38575,0.92761 -4.69843,2.26185l-62.31973,35.94502c-7.82404,4.51258 -11.73606,6.76808 -14.554,6.29157c-2.44785,-0.41457 -4.56103,-1.94894 -5.71165,-4.15043c-1.32455,-2.53188 -0.38756,-6.94916 1.48656,-15.78531l14.92695,-70.37631c0.55403,-2.61288 0.83104,-3.91853 0.69952,-5.16859c-0.11643,-1.10551 -0.46381,-2.17449 -1.01974,-3.13864c-0.6282,-1.08804 -1.61999,-1.9823 -3.6034,-3.76922l-53.44292,-48.16283c-6.70947,-6.04696 -10.06429,-9.06964 -10.4814,-11.89696c-0.36215,-2.45627 0.4449,-4.94049 2.18164,-6.71455c1.99945,-2.0425 6.49059,-2.51647 15.47288,-3.46441l71.5452,-7.55131c2.65545,-0.28019 3.98302,-0.42029 5.1311,-0.93174c1.01577,-0.45237 1.92527,-1.11329 2.66959,-1.93957c0.84105,-0.93381 1.38459,-2.15321 2.47184,-4.592z"/></g></g></svg>